<?xml version="1.0" encoding="UTF-8"?>
<svg xmlns="http://www.w3.org/2000/svg" xmlns:xlink="http://www.w3.org/1999/xlink" id="Layer_2" viewBox="0 0 622.44 154.99">
  <defs>
    <style>.cls-1{fill:url(#linear-gradient);}.cls-1,.cls-2{stroke-width:0px;}.cls-2{fill:#fff;}</style>
    <linearGradient id="linear-gradient" x1="0" y1="77.5" x2="128.47" y2="77.5" gradientUnits="userSpaceOnUse">
      <stop offset="0" stop-color="#fd1d37"></stop>
      <stop offset="1" stop-color="#ff4a2c"></stop>
    </linearGradient>
  </defs>
  <path class="cls-2" d="m221.14,113.67c-1.29,2-3.4,2.99-6.34,2.99-1.7,0-2.98-.43-3.83-1.28-.85-.85-1.63-2.3-2.33-4.36l-4.75-12.94c-1.23-3.29-2.64-5.6-4.23-6.96-1.58-1.35-3.57-2.03-5.94-2.03s-4.48.06-6.29.18v26.85c-1.23.23-2.8.35-4.71.35s-3.45-.12-4.62-.35v-60.13c1.17-.23,2.71-.35,4.62-.35s3.48.12,4.71.35v25.27l4.93-.18c.82,0,1.45-.18,1.89-.53.44-.35.92-1,1.45-1.94l11.27-19.11c.82-1.41,1.6-2.39,2.33-2.95.73-.56,1.89-.84,3.48-.84s3.32.09,5.2.26l.62.79-13.29,22.54c-1.12,1.88-2.29,3.35-3.52,4.4,2.76.53,4.92,1.64,6.47,3.35,1.55,1.7,2.95,4.2,4.18,7.48l4.75,12.77c1.17,3.05,2.49,5.17,3.96,6.34Z"></path>
  <path class="cls-2" d="m265.95,103.99l-.09,4.49c1.76-.18,3.7-.26,5.81-.26h22.8c0,1.58-.09,2.79-.26,3.61-.53,2.94-2.52,4.4-5.99,4.4h-26.15c-1.64,0-2.95-.51-3.92-1.54-.97-1.03-1.45-2.45-1.45-4.27v-53.88l.62-.53h35.39c.18.94.26,2.19.26,3.74s-.24,2.95-.71,4.18h-26.41l.09,5.72v12.33l5.46-.09h16.55c.29,1.06.44,2.36.44,3.92s-.15,2.83-.44,3.83h-16.55c-2.29,0-4.11-.03-5.46-.09v14.44Z"></path>
  <path class="cls-2" d="m376.18,55.65l.53.44v59.96c-1.64.29-3.52.44-5.63.44s-3.99-.12-5.64-.35l-18.75-36.89c-1.88-3.93-3.73-8.01-5.55-12.24l-.35.09c.53,9.1.79,16.29.79,21.57v27.47c-1.41.23-2.88.35-4.4.35s-2.96-.12-4.31-.35v-60.05c1.64-.29,3.51-.44,5.59-.44s3.95.12,5.59.35l18.58,36.89c.82,1.76,1.91,4.15,3.26,7.18,1.35,3.02,2.2,4.89,2.55,5.59l.35-.09c-.47-7.51-.7-14.91-.7-22.19v-21.92c0-2.11.37-3.61,1.1-4.49.73-.88,2.04-1.32,3.92-1.32h3.08Z"></path>
  <path class="cls-2" d="m448.73,101.52l-5.28.09h-12.06l-5.11-.09-4.67,14.7c-1,.23-2.32.35-3.96.35s-3.2-.21-4.67-.62l-.26-.44,19.9-59.52c1.23-.23,3.02-.35,5.37-.35s4.11.12,5.28.35l19.72,59.52c-1.23.82-2.82,1.23-4.75,1.23s-3.32-.35-4.14-1.06c-.82-.7-1.53-1.99-2.11-3.87l-3.26-10.3Zm-20.07-7.57l4.49-.09h8.8c2.41.06,3.87.09,4.4.09l-4.05-12.77c-2.05-6.57-3.61-11.89-4.67-15.94h-.44c-.7,3.23-1.85,7.48-3.43,12.77l-5.11,15.94Z"></path>
  <path class="cls-2" d="m542.06,113.67c-1.29,2-3.41,2.99-6.34,2.99-1.7,0-2.98-.43-3.83-1.28-.85-.85-1.63-2.3-2.33-4.36l-4.75-12.94c-1.23-3.29-2.64-5.6-4.23-6.96-1.58-1.35-3.57-2.03-5.94-2.03s-4.48.06-6.3.18v26.85c-1.23.23-2.8.35-4.71.35s-3.45-.12-4.62-.35v-60.13c1.17-.23,2.71-.35,4.62-.35s3.48.12,4.71.35v25.27l4.93-.18c.82,0,1.45-.18,1.89-.53s.92-1,1.45-1.94l11.27-19.11c.82-1.41,1.6-2.39,2.33-2.95.73-.56,1.89-.84,3.48-.84s3.31.09,5.19.26l.62.79-13.29,22.54c-1.12,1.88-2.29,3.35-3.52,4.4,2.76.53,4.91,1.64,6.47,3.35,1.55,1.7,2.95,4.2,4.18,7.48l4.75,12.77c1.17,3.05,2.49,5.17,3.96,6.34Z"></path>
  <path class="cls-2" d="m582.65,112c-6.28-5.4-9.42-14.03-9.42-25.88,0-4.81.54-9.14,1.63-12.99,1.09-3.84,2.67-7.12,4.75-9.82,2.08-2.7,4.65-4.78,7.7-6.25,3.05-1.47,6.57-2.2,10.57-2.2s7.44.72,10.52,2.16c3.08,1.44,5.65,3.51,7.7,6.21,2.05,2.7,3.62,5.99,4.71,9.86s1.63,8.22,1.63,13.03-.54,9.14-1.63,12.99c-1.09,3.85-2.66,7.12-4.71,9.82-2.06,2.7-4.62,4.77-7.7,6.21s-6.59,2.16-10.52,2.16c-6.22,0-11.3-1.76-15.23-5.28Zm3.17-41.73c-1,2.47-1.7,4.96-2.11,7.48-.41,2.52-.62,5.14-.62,7.84,0,2.99.2,5.94.62,8.85.41,2.91,1.17,5.5,2.29,7.79,1.11,2.29,2.64,4.12,4.58,5.5s4.4,2.07,7.4,2.07c3.23,0,5.8-.81,7.7-2.42,1.91-1.61,3.37-3.62,4.4-6.03,1.03-2.41,1.7-4.99,2.03-7.75.32-2.76.48-5.28.48-7.57s-.16-4.9-.48-7.66c-.32-2.76-.98-5.33-1.98-7.7-1-2.38-2.48-4.36-4.45-5.94-1.97-1.58-4.56-2.38-7.79-2.38-2.99,0-5.5.7-7.53,2.11s-3.54,3.35-4.53,5.81Z"></path>
  <path class="cls-1" d="m128.47,151.84l-18.19-21.9c11.06-11.28,17.87-26.57,17.87-43.4,0-34.59-28.74-62.73-64.07-62.73-6.21,0-12.21.89-17.9,2.51V0l-7,6.26v22.48C16.18,38.27,0,60.59,0,86.54c0,34.59,28.74,62.73,64.07,62.73,15.79,0,30.25-5.63,41.43-14.94l17.31,20.66,5.65-3.15Zm-7.61-65.3c0,14.6-5.78,27.89-15.21,37.82l-42.89-51.65,31.78-33.05c15.81,9.88,26.33,27.2,26.33,46.88Zm-56.78-55.59c8.92,0,17.37,2.03,24.88,5.64h-.3l-42.48,43.76v-46.55c5.63-1.84,11.64-2.85,17.9-2.85Zm0,111.19c-31.31,0-56.78-24.94-56.78-55.59,0-21.91,13.02-40.9,31.88-49.95v81.17h7v-29.05l11.67-11.26,43.03,51.37c-9.92,8.29-22.77,13.32-36.81,13.32Z"></path>
</svg>
