<svg xmlns="http://www.w3.org/2000/svg" fill="none" viewBox="0 0 93 80" height="80" width="93">
<path fill="#A3A78C" d="M8.4001 77.0262V77.1844C8.4001 77.5284 8.65453 77.7617 9.06945 77.9199C9.45696 78.0662 9.958 78.1177 10.3103 78.1177C10.7095 78.1177 11.1988 78.0821 11.5981 77.9318C11.9739 77.7736 12.2165 77.5403 12.2165 77.1448C12.2165 76.8127 11.9621 76.6308 11.5355 76.52C11.3163 76.4607 11.0736 76.433 10.8544 76.4212C10.6234 76.4093 10.416 76.4093 10.2477 76.4093C8.48622 76.4093 6.69738 76.089 6.69738 74.001C6.69738 71.913 8.48622 71.3831 10.3103 71.3831C12.0247 71.3831 13.9349 72.1582 13.9349 74.0485V74.2343H12.0756V74.0485C12.0756 73.7163 11.8447 73.483 11.4924 73.3366C11.1166 73.1903 10.6665 73.127 10.3142 73.127C9.93842 73.127 9.48828 73.1626 9.13599 73.301C8.7837 73.4236 8.5645 73.6451 8.5645 74.001C8.5645 74.3213 8.79545 74.4914 9.21036 74.5784C9.40608 74.6258 9.62528 74.6535 9.82882 74.6654C10.0363 74.6772 10.2555 74.6772 10.4003 74.6772C12.2009 74.6772 14.0954 74.9975 14.0954 77.1448C14.0954 79.2922 12.197 79.8577 10.3142 79.8577C8.61147 79.8577 6.55646 79.134 6.55646 77.1804V77.0223H8.40402L8.4001 77.0262Z"></path>
<path fill="#A3A78C" d="M19.2819 75.0845L23.0396 71.5492H25.6661L21.9945 74.9975L25.5917 79.7034H23.3214L20.6832 76.2393L19.2819 77.5561V79.7034H17.4226V71.5492H19.2819V75.0845Z"></path>
<path fill="#A3A78C" d="M30.6255 71.5492H28.7662V79.7034H30.6255V71.5492Z"></path>
<path fill="#A3A78C" d="M40.3173 76.6347V71.5492H42.1649V79.7034H40.5483L36.1956 74.6179V79.7034H34.3363V71.5492H35.9412L40.3173 76.6347Z"></path>
<path fill="#A3A78C" d="M55.8415 80L55.6967 79.9249C55.27 79.7034 54.8942 79.4226 54.5654 79.1023C53.9352 79.6441 53.2502 79.8774 52.3656 79.8774C51.4809 79.8774 50.6863 79.6441 50.1031 78.9679C49.7273 78.5131 49.5316 77.999 49.5316 77.4098C49.5316 76.2788 50.1892 75.4918 51.16 74.9422C50.8194 74.4755 50.4671 73.8744 50.4671 73.2734C50.4671 72.0198 51.5475 71.395 52.7531 71.395C53.9587 71.395 55.0038 72.1305 55.0038 73.3485C55.0038 74.258 54.4089 74.8117 53.716 75.2783L54.4715 76.3342C54.5458 76.1483 54.6046 75.9545 54.6555 75.7568L54.6907 75.5828L56.3582 75.9743L56.3112 76.1325C56.2368 76.4014 56.1664 76.7098 56.0685 76.9787C55.9707 77.2239 55.8728 77.4691 55.728 77.6787C56.0215 77.9476 56.4834 78.3312 56.7613 78.4656L56.9453 78.5526L55.8493 80H55.8415ZM51.3674 77.3465C51.3674 77.912 51.6962 78.2916 52.3029 78.2916C52.7296 78.2916 53.0702 78.1058 53.399 77.8369L52.1346 76.1799C51.6845 76.4488 51.3674 76.8799 51.3674 77.3465ZM52.2442 73.1943C52.2442 73.3287 52.3303 73.5027 52.4752 73.7084C52.573 73.8428 52.6826 73.9654 52.7688 74.0761C52.804 74.0524 52.8431 74.0287 52.8784 73.9891C52.9645 73.9259 53.0467 73.8547 53.1328 73.7795C53.2894 73.6214 53.3755 73.4711 53.3755 73.3248C53.3755 72.9926 53.1445 72.7711 52.7805 72.7711C52.4752 72.7711 52.2442 72.957 52.2442 73.1903"></path>
<path fill="#A3A78C" d="M65.412 77.0262V77.1844C65.412 77.5284 65.6664 77.7617 66.0813 77.9199C66.4689 78.0662 66.9699 78.1177 67.3222 78.1177C67.7214 78.1177 68.2107 78.0821 68.61 77.9318C68.9857 77.7736 69.2284 77.5403 69.2284 77.1448C69.2284 76.8127 68.974 76.6308 68.5473 76.52C68.3281 76.4607 68.0855 76.433 67.8663 76.4212C67.6353 76.4093 67.4279 76.4093 67.2595 76.4093C65.4981 76.4093 63.7093 76.089 63.7093 74.001C63.7093 71.913 65.4981 71.3831 67.3222 71.3831C69.0366 71.3831 70.9468 72.1582 70.9468 74.0485V74.2343H69.0875V74.0485C69.0875 73.7163 68.8566 73.483 68.5043 73.3366C68.1285 73.1903 67.6784 73.127 67.3261 73.127C66.9503 73.127 66.5002 73.1626 66.1479 73.301C65.7956 73.4236 65.5764 73.6451 65.5764 74.001C65.5764 74.3213 65.8073 74.4914 66.2222 74.5784C66.418 74.6258 66.6372 74.6535 66.8407 74.6654C67.0482 74.6772 67.2674 74.6772 67.4122 74.6772C69.2128 74.6772 71.1073 74.9975 71.1073 77.1448C71.1073 79.2922 69.2089 79.8577 67.3261 79.8577C65.6234 79.8577 63.5683 79.134 63.5683 77.1804V77.0223H65.4159L65.412 77.0262Z"></path>
<path fill="#A3A78C" d="M74.4345 71.5492H79.9928C81.6211 71.5492 82.4118 72.7395 82.4118 74.0564C82.4118 75.3732 81.5624 76.4884 79.9928 76.4884H76.2977V79.7074H74.4384V71.5531L74.4345 71.5492ZM76.2938 74.7563H79.9889C80.3529 74.7563 80.5486 74.4993 80.5486 74.1434V73.91C80.5486 73.5423 80.3529 73.2971 79.9889 73.2971H76.2938V74.7603V74.7563Z"></path>
<path fill="#A3A78C" d="M89.802 71.5492L93 79.7034H90.9959L90.2169 77.7024H86.8506L86.0834 79.7034H84.1028L87.3125 71.5492H89.8059H89.802ZM87.4808 75.9703H89.5828L88.5142 73.3683L87.4808 75.9703Z"></path>
<path fill="#A3A78C" d="M52.2521 0V17.8903C48.5218 18.1038 44.2943 18.7958 40.3487 20.9511V0H52.2521Z"></path>
<path fill="#A3A78C" d="M52.2521 27.8715H52.2599C52.2364 31.739 52.2521 35.6105 52.2521 39.478V66.4241H40.3487V36.0534C42.8303 31.5255 46.866 27.8478 52.2521 27.8675"></path>
<path fill="#A3A78C" d="M29.3808 66.4281L29.0676 65.6411L12.4592 20.4251H0L16.6671 66.4281H29.3808Z"></path>
<path fill="#A3A78C" d="M61.2902 29.4177C62.0927 28.2907 63.126 27.3376 64.3434 26.6693C66.007 25.7558 67.9602 25.3841 69.8352 25.6332C66.1048 22.8374 61.5681 21.2002 56.9453 20.7533C50.792 20.1602 43.758 21.3267 38.9082 25.4197C26.1671 36.1681 26.492 61.6194 26.676 66.4281H31.8664C31.7176 61.8606 31.4867 37.9041 42.4976 28.6228C45.6408 25.9733 50.0092 24.5853 54.0996 25.1033C57.2037 25.4948 59.5992 27.7608 60.4878 30.7583C60.7226 30.2916 60.9927 29.8448 61.2941 29.4217"></path>
<path fill="#B58B76" d="M86.3692 65.6411L74.2035 32.5299C73.3541 30.2205 71.1738 28.6861 68.7313 28.6861H68.6374C64.5821 28.6861 61.7638 32.7593 63.1573 36.607L73.9647 66.4281H86.6784L86.3652 65.6411H86.3692Z"></path>
</svg>
